<mxfile host="app.diagrams.net" modified="2023-05-12T14:47:22.164Z" agent="5.0 (Windows NT 10.0; Win64; x64) AppleWebKit/537.36 (KHTML, like Gecko) Chrome/112.0.0.0 Safari/537.36 OPR/98.0.0.0" etag="NM6kjQbWr0eBNPrMKDa_" version="20.8.20" type="github">
  <diagram name="Page-1" id="MrMd92r9Plxw8csmyKqU">
    <mxGraphModel dx="1250" dy="621" grid="1" gridSize="10" guides="1" tooltips="1" connect="1" arrows="1" fold="1" page="1" pageScale="1" pageWidth="850" pageHeight="1100" math="0" shadow="0">
      <root>
        <mxCell id="0" />
        <mxCell id="1" parent="0" />
        <mxCell id="bXOHu24MMkb-XXLfuNmj-2" value="YOGA CENTER" style="ellipse;whiteSpace=wrap;html=1;" vertex="1" parent="1">
          <mxGeometry x="360" y="380" width="120" height="80" as="geometry" />
        </mxCell>
        <mxCell id="bXOHu24MMkb-XXLfuNmj-3" value="CUSTOMER" style="rounded=1;whiteSpace=wrap;html=1;" vertex="1" parent="1">
          <mxGeometry x="450" y="200" width="120" height="60" as="geometry" />
        </mxCell>
        <mxCell id="bXOHu24MMkb-XXLfuNmj-4" value="ADMIN" style="whiteSpace=wrap;html=1;rounded=1;" vertex="1" parent="1">
          <mxGeometry x="590" y="390" width="120" height="60" as="geometry" />
        </mxCell>
        <mxCell id="bXOHu24MMkb-XXLfuNmj-6" value="GUEST" style="rounded=1;whiteSpace=wrap;html=1;" vertex="1" parent="1">
          <mxGeometry x="230" y="200" width="120" height="60" as="geometry" />
        </mxCell>
        <mxCell id="bXOHu24MMkb-XXLfuNmj-7" value="STAFF" style="rounded=1;whiteSpace=wrap;html=1;" vertex="1" parent="1">
          <mxGeometry x="360" y="570" width="120" height="60" as="geometry" />
        </mxCell>
      </root>
    </mxGraphModel>
  </diagram>
</mxfile>
